<svg xmlns="http://www.w3.org/2000/svg" viewBox="0 0 64 48" role="img" aria-label="Colibrí">
  <defs>
    <linearGradient id="body" x1="0" y1="0" x2="1" y2="1">
      <stop offset="0" stop-color="#a3e635"/>
      <stop offset="0.48" stop-color="#22c55e"/>
      <stop offset="1" stop-color="#047857"/>
    </linearGradient>
    <linearGradient id="wing" x1="0" y1="0" x2="1" y2="1">
      <stop offset="0" stop-color="#6b4f35"/>
      <stop offset="1" stop-color="#263238"/>
    </linearGradient>
    <filter id="shadow" x="-30%" y="-30%" width="160%" height="160%">
      <feDropShadow dx="0" dy="1.4" stdDeviation="1.25" flood-color="#020617" flood-opacity=".48"/>
    </filter>
  </defs>
  <g filter="url(#shadow)" stroke-linejoin="round" stroke-linecap="round">
    <path d="M1.5 18.1 21.8 16.5 23.1 19.2Z" fill="#172033" stroke="#0f172a" stroke-width="1"/>
    <path d="M20.5 17.6c1.2-6.7 7.7-10.4 13.8-7.8 4.1 1.8 6.2 5.4 6 9.5-5.6 2.2-12.7 2.6-19.8-1.7Z" fill="#15803d" stroke="#064e3b" stroke-width="1.2"/>
    <path d="M25.2 14.2c2.3-3.6 7.4-4.7 11-1.8-3.5-.4-6.7.3-9.3 2.8Z" fill="#bef264" opacity=".85"/>
    <circle cx="29.4" cy="13.7" r="1.45" fill="#020617" stroke="#fef08a" stroke-width=".7"/>
    <path d="M20.8 18.5c1.9 1.1 4.2 1.9 7 2.4 2.2 3.1 2.4 6.2.9 9-4.2-1.8-7.1-5.8-7.9-11.4Z" fill="#ef233c" stroke="#991b1b" stroke-width="1.1"/>
    <path d="M28.6 22.2c4.2-2.8 9.7-3.4 14.5-1.2 6 2.8 10.8 9.2 12.6 15.5-8.4 1.3-17.4-1.9-23.2-7.8-1.7-1.7-3-3.9-3.9-6.5Z" fill="url(#body)" stroke="#065f46" stroke-width="1.3"/>
    <path d="M28.4 23.4c.2 5.6 3.3 10.6 8.1 13.4-5.3.8-10.6-1.8-13.1-6.6 1.9-1.3 3.5-3.6 5-6.8Z" fill="#fffaf0" stroke="#d6d3d1" stroke-width=".9"/>
    <path d="M36.2 22.2c7.2-.4 14.8 4.8 19.4 13.9-6.4-1.1-13.8-4.6-19.4-9.8Z" fill="url(#wing)" stroke="#292524" stroke-width="1.05"/>
    <path d="M48.5 34.1 62 42.4 53.9 38.2 60.4 45 45.3 36.5Z" fill="#263238" stroke="#111827" stroke-width="1"/>
    <path d="M27.1 30.3c-1.6 2.1-2.2 4.4-1.2 6.1M30.1 31.6c-1.4 2.3-1.5 4.2-.4 5.8" fill="none" stroke="#172033" stroke-width="1.25"/>
    <path d="M24.4 36.3h3.2M28.4 37.3h3" fill="none" stroke="#172033" stroke-width="1"/>
  </g>
</svg>
